<svg xmlns="http://www.w3.org/2000/svg" width="203.67" height="35" viewBox="0 0 203.67 35"><rect class="svg__rect" x="0" y="0" width="111.00999999999999" height="35" fill="#7E459B"/><rect class="svg__rect" x="109.00999999999999" y="0" width="94.66" height="35" fill="#B382BA"/><path class="svg__text" d="M15.00 22L13.46 22L16.68 13.47L18.01 13.47L21.24 22L19.69 22L18.99 20.01L15.69 20.01L15.00 22ZM17.34 15.28L16.10 18.82L18.58 18.82L17.34 15.28ZM26.87 14.66L24.24 14.66L24.24 13.47L31.00 13.47L31.00 14.66L28.34 14.66L28.34 22L26.87 22L26.87 14.66ZM36.32 22L34.85 22L34.85 13.47L36.32 13.47L36.32 22ZM43.43 22L40.37 13.47L42.00 13.47L44.14 20.14L46.31 13.47L47.94 13.47L44.87 22L43.43 22ZM53.45 22L51.98 22L51.98 13.47L53.45 13.47L53.45 22ZM60.72 22L58.26 22L58.26 13.47L60.78 13.47Q61.91 13.47 62.79 13.97Q63.66 14.48 64.14 15.40Q64.63 16.33 64.63 17.52L64.63 17.52L64.63 17.95Q64.63 19.16 64.14 20.08Q63.66 21.00 62.77 21.50Q61.87 22 60.72 22L60.72 22ZM59.74 14.66L59.74 20.82L60.71 20.82Q61.88 20.82 62.50 20.09Q63.13 19.36 63.14 17.99L63.14 17.99L63.14 17.52Q63.14 16.13 62.53 15.40Q61.93 14.66 60.78 14.66L60.78 14.66L59.74 14.66ZM69.87 22L68.33 22L71.55 13.47L72.88 13.47L76.11 22L74.56 22L73.87 20.01L70.56 20.01L69.87 22ZM72.21 15.28L70.98 18.82L73.45 18.82L72.21 15.28ZM82.52 22L80.06 22L80.06 13.47L82.58 13.47Q83.72 13.47 84.59 13.97Q85.47 14.48 85.95 15.40Q86.43 16.33 86.43 17.52L86.43 17.52L86.43 17.95Q86.43 19.16 85.94 20.08Q85.46 21.00 84.57 21.50Q83.67 22 82.52 22L82.52 22ZM81.55 14.66L81.55 20.82L82.51 20.82Q83.68 20.82 84.30 20.09Q84.93 19.36 84.94 17.99L84.94 17.99L84.94 17.52Q84.94 16.13 84.34 15.40Q83.73 14.66 82.58 14.66L82.58 14.66L81.55 14.66ZM96.47 22L90.89 22L90.89 13.47L96.43 13.47L96.43 14.66L92.38 14.66L92.38 17.02L95.88 17.02L95.88 18.19L92.38 18.19L92.38 20.82L96.47 20.82L96.47 22Z" fill="#FFFFFF"/><path class="svg__text" d="M124.99 15.48L122.41 15.48L122.41 13.60L129.93 13.60L129.93 15.48L127.36 15.48L127.36 22L124.99 22L124.99 15.48ZM135.72 22L133.29 22L137.00 13.60L139.35 13.60L143.06 22L140.59 22L139.93 20.37L136.38 20.37L135.72 22ZM138.16 15.93L137.07 18.61L139.23 18.61L138.16 15.93ZM149.59 22L147.22 22L147.22 13.60L151.06 13.60Q152.20 13.60 153.04 13.98Q153.88 14.35 154.33 15.06Q154.79 15.76 154.79 16.71L154.79 16.71Q154.79 17.62 154.36 18.30Q153.94 18.98 153.15 19.36L153.15 19.36L154.96 22L152.41 22L150.89 19.77L149.59 19.77L149.59 22ZM149.59 15.47L149.59 17.93L150.91 17.93Q151.65 17.93 152.02 17.61Q152.39 17.29 152.39 16.71L152.39 16.71Q152.39 16.12 152.02 15.79Q151.65 15.47 150.91 15.47L150.91 15.47L149.59 15.47ZM166.32 22L159.58 22L159.58 13.60L166.17 13.60L166.17 15.44L161.93 15.44L161.93 16.85L165.67 16.85L165.67 18.63L161.93 18.63L161.93 20.17L166.32 20.17L166.32 22ZM173.51 22L171.13 22L171.13 13.60L177.72 13.60L177.72 15.44L173.51 15.44L173.51 17.28L177.22 17.28L177.22 19.12L173.51 19.12L173.51 22ZM183.73 22L181.31 22L185.01 13.60L187.36 13.60L191.07 22L188.61 22L187.94 20.37L184.39 20.37L183.73 22ZM186.17 15.93L185.08 18.61L187.25 18.61L186.17 15.93Z" fill="#FFFFFF" x="122.00999999999999"/></svg>