<svg xmlns="http://www.w3.org/2000/svg" width="189.5" height="35" viewBox="0 0 189.5 35"><rect class="svg__rect" x="0" y="0" width="72.46000000000001" height="35" fill="#7E459B"/><rect class="svg__rect" x="70.46000000000001" y="0" width="119.03999999999999" height="35" fill="#B382BA"/><path class="svg__text" d="M19.57 22L14.22 22L14.22 13.47L15.70 13.47L15.70 20.82L19.57 20.82L19.57 22ZM25.26 22L23.79 22L23.79 13.47L25.26 13.47L25.26 22ZM29.80 18.19L29.80 18.19L29.80 17.39Q29.80 16.19 30.23 15.27Q30.66 14.35 31.46 13.85Q32.26 13.35 33.31 13.35L33.31 13.35Q34.72 13.35 35.58 14.12Q36.44 14.89 36.58 16.29L36.58 16.29L35.11 16.29Q35.00 15.37 34.57 14.96Q34.14 14.55 33.31 14.55L33.31 14.55Q32.34 14.55 31.82 15.26Q31.30 15.96 31.29 17.33L31.29 17.33L31.29 18.09Q31.29 19.47 31.79 20.20Q32.28 20.92 33.24 20.92L33.24 20.92Q34.11 20.92 34.55 20.53Q34.99 20.14 35.11 19.22L35.11 19.22L36.58 19.22Q36.45 20.59 35.57 21.35Q34.70 22.12 33.24 22.12L33.24 22.12Q32.22 22.12 31.44 21.63Q30.66 21.15 30.24 20.26Q29.82 19.37 29.80 18.19ZM32.52 22.83L32.52 22.83L32.71 22.01L33.75 22.01L33.68 22.33Q34.56 22.49 34.56 23.34L34.56 23.34Q34.56 23.96 34.06 24.30Q33.55 24.65 32.64 24.65L32.64 24.65L32.60 23.85Q32.99 23.85 33.20 23.71Q33.41 23.57 33.41 23.32L33.41 23.32Q33.41 23.06 33.20 22.96Q32.99 22.86 32.52 22.83ZM41.67 22L40.13 22L43.36 13.47L44.69 13.47L47.91 22L46.37 22L45.67 20.01L42.37 20.01L41.67 22ZM42.77 12.89L41.90 12.85Q41.90 12.20 42.27 11.76Q42.64 11.32 43.20 11.32L43.20 11.32Q43.53 11.32 44.00 11.59Q44.48 11.85 44.78 11.85L44.78 11.85Q45.00 11.85 45.16 11.68Q45.32 11.52 45.32 11.24L45.32 11.24L46.19 11.31Q46.19 11.96 45.82 12.38Q45.45 12.81 44.89 12.81L44.89 12.81Q44.66 12.81 44.49 12.76Q44.32 12.71 44.02 12.54Q43.71 12.36 43.58 12.33Q43.46 12.29 43.30 12.29L43.30 12.29Q43.08 12.29 42.93 12.46Q42.77 12.63 42.77 12.89L42.77 12.89ZM44.02 15.28L42.78 18.82L45.25 18.82L44.02 15.28ZM51.60 18.00L51.60 18.00L51.60 17.52Q51.60 16.28 52.04 15.32Q52.48 14.37 53.29 13.86Q54.10 13.35 55.14 13.35Q56.18 13.35 56.99 13.85Q57.79 14.35 58.23 15.29Q58.67 16.23 58.68 17.48L58.68 17.48L58.68 17.96Q58.68 19.21 58.24 20.16Q57.81 21.10 57.01 21.61Q56.20 22.12 55.15 22.12L55.15 22.12Q54.11 22.12 53.30 21.61Q52.49 21.10 52.05 20.17Q51.61 19.23 51.60 18.00ZM53.08 17.46L53.08 17.96Q53.08 19.36 53.63 20.13Q54.18 20.90 55.15 20.90L55.15 20.90Q56.14 20.90 56.67 20.15Q57.20 19.40 57.20 17.96L57.20 17.96L57.20 17.51Q57.20 16.09 56.66 15.34Q56.12 14.58 55.14 14.58L55.14 14.58Q54.18 14.58 53.64 15.33Q53.09 16.09 53.08 17.46L53.08 17.46Z" fill="#FFFFFF"/><path class="svg__text" d="M86.85 22L84.65 22L84.65 13.60L86.60 13.60L89.56 18.45L92.44 13.60L94.39 13.60L94.42 22L92.24 22L92.21 17.55L90.05 21.17L89.00 21.17L86.85 17.67L86.85 22ZM106.32 22L99.58 22L99.58 13.60L106.17 13.60L106.17 15.44L101.93 15.44L101.93 16.85L105.67 16.85L105.67 18.63L101.93 18.63L101.93 20.17L106.32 20.17L106.32 22ZM113.46 22L111.13 22L111.13 13.60L113.08 13.60L116.79 18.07L116.79 13.60L119.12 13.60L119.12 22L117.17 22L113.46 17.52L113.46 22ZM126.07 15.48L123.49 15.48L123.49 13.60L131.01 13.60L131.01 15.48L128.45 15.48L128.45 22L126.07 22L126.07 15.48ZM134.96 17.80L134.96 17.80Q134.96 16.55 135.56 15.55Q136.16 14.56 137.23 14.00Q138.29 13.43 139.62 13.43L139.62 13.43Q140.95 13.43 142.01 14.00Q143.08 14.56 143.68 15.55Q144.29 16.55 144.29 17.80L144.29 17.80Q144.29 19.05 143.68 20.04Q143.08 21.04 142.02 21.60Q140.96 22.17 139.62 22.17L139.62 22.17Q138.29 22.17 137.23 21.60Q136.16 21.04 135.56 20.04Q134.96 19.05 134.96 17.80ZM137.35 17.80L137.35 17.80Q137.35 18.51 137.65 19.05Q137.96 19.60 138.47 19.90Q138.99 20.20 139.62 20.20L139.62 20.20Q140.26 20.20 140.77 19.90Q141.29 19.60 141.59 19.05Q141.89 18.51 141.89 17.80L141.89 17.80Q141.89 17.09 141.59 16.54Q141.29 16 140.77 15.70Q140.26 15.40 139.62 15.40L139.62 15.40Q138.98 15.40 138.47 15.70Q137.96 16 137.65 16.54Q137.35 17.09 137.35 17.80ZM151.40 22L149.02 22L149.02 13.60L152.86 13.60Q154.01 13.60 154.84 13.98Q155.68 14.35 156.14 15.06Q156.60 15.76 156.60 16.71L156.60 16.71Q156.60 17.62 156.17 18.30Q155.74 18.98 154.95 19.36L154.95 19.36L156.76 22L154.22 22L152.69 19.77L151.40 19.77L151.40 22ZM151.40 15.47L151.40 17.93L152.72 17.93Q153.45 17.93 153.82 17.61Q154.19 17.29 154.19 16.71L154.19 16.71Q154.19 16.12 153.82 15.79Q153.45 15.47 152.72 15.47L152.72 15.47L151.40 15.47ZM163.76 22L161.38 22L161.38 13.60L163.76 13.60L163.76 22ZM170.35 22L167.93 22L171.64 13.60L173.98 13.60L177.69 22L175.23 22L174.57 20.37L171.02 20.37L170.35 22ZM172.79 15.93L171.71 18.61L173.87 18.61L172.79 15.93Z" fill="#FFFFFF" x="83.46000000000001"/></svg>