<svg xmlns="http://www.w3.org/2000/svg" width="131.57999999999998" height="35" viewBox="0 0 131.57999999999998 35"><rect class="svg__rect" x="0" y="0" width="131.57999999999998" height="35" fill="#C13B3A"/><rect class="svg__rect" x="131.57999999999998" y="0" width="0" height="35" fill="#EA4560"/><path class="svg__text" d="M13.95 18.00L13.95 18.00L13.95 17.52Q13.95 16.28 14.39 15.32Q14.83 14.37 15.64 13.86Q16.44 13.35 17.49 13.35Q18.53 13.35 19.34 13.85Q20.14 14.35 20.58 15.29Q21.02 16.23 21.03 17.48L21.03 17.48L21.03 17.96Q21.03 19.21 20.59 20.16Q20.16 21.10 19.35 21.61Q18.55 22.12 17.50 22.12L17.50 22.12Q16.46 22.12 15.65 21.61Q14.84 21.10 14.40 20.17Q13.95 19.23 13.95 18.00ZM15.43 17.46L15.43 17.96Q15.43 19.36 15.98 20.13Q16.53 20.90 17.50 20.90L17.50 20.90Q18.48 20.90 19.01 20.15Q19.54 19.40 19.54 17.96L19.54 17.96L19.54 17.51Q19.54 16.09 19.01 15.34Q18.47 14.58 17.49 14.58L17.49 14.58Q16.53 14.58 15.98 15.33Q15.44 16.09 15.43 17.46L15.43 17.46ZM28.60 22L25.49 22L25.49 13.47L28.41 13.47Q29.86 13.47 30.62 14.05Q31.37 14.63 31.37 15.78L31.37 15.78Q31.37 16.36 31.06 16.83Q30.74 17.30 30.13 17.56L30.13 17.56Q30.82 17.75 31.20 18.26Q31.58 18.78 31.58 19.51L31.58 19.51Q31.58 20.71 30.81 21.36Q30.04 22 28.60 22L28.60 22ZM26.97 18.15L26.97 20.82L28.62 20.82Q29.32 20.82 29.71 20.47Q30.10 20.13 30.10 19.51L30.10 19.51Q30.10 18.18 28.74 18.15L28.74 18.15L26.97 18.15ZM26.97 14.66L26.97 17.06L28.43 17.06Q29.12 17.06 29.51 16.75Q29.90 16.43 29.90 15.86L29.90 15.86Q29.90 15.23 29.54 14.95Q29.18 14.66 28.41 14.66L28.41 14.66L26.97 14.66ZM37.53 22L36.05 22L36.05 13.47L39.05 13.47Q40.53 13.47 41.33 14.13Q42.13 14.79 42.13 16.05L42.13 16.05Q42.13 16.90 41.72 17.48Q41.31 18.06 40.57 18.37L40.57 18.37L42.48 21.92L42.48 22L40.89 22L39.18 18.71L37.53 18.71L37.53 22ZM37.53 14.66L37.53 17.52L39.06 17.52Q39.81 17.52 40.23 17.15Q40.65 16.77 40.65 16.11L40.65 16.11Q40.65 15.43 40.26 15.05Q39.87 14.68 39.10 14.66L39.10 14.66L37.53 14.66ZM48.09 22L46.61 22L46.61 13.47L48.09 13.47L48.09 22ZM52.65 18.13L52.65 18.13L52.65 17.46Q52.65 15.53 53.58 14.44Q54.51 13.35 56.16 13.35L56.16 13.35Q57.59 13.35 58.43 14.05Q59.26 14.76 59.43 16.08L59.43 16.08L57.98 16.08Q57.73 14.54 56.19 14.54L56.19 14.54Q55.20 14.54 54.68 15.26Q54.16 15.98 54.14 17.37L54.14 17.37L54.14 18.02Q54.14 19.40 54.73 20.17Q55.31 20.93 56.35 20.93L56.35 20.93Q57.48 20.93 57.96 20.42L57.96 20.42L57.96 18.75L56.21 18.75L56.21 17.62L59.44 17.62L59.44 20.89Q58.98 21.50 58.16 21.81Q57.34 22.12 56.29 22.12L56.29 22.12Q55.22 22.12 54.39 21.63Q53.57 21.14 53.12 20.24Q52.67 19.33 52.65 18.13ZM64.84 22L63.30 22L66.52 13.47L67.85 13.47L71.08 22L69.53 22L68.83 20.01L65.53 20.01L64.84 22ZM67.18 15.28L65.94 18.82L68.42 18.82L67.18 15.28ZM76.71 14.66L74.08 14.66L74.08 13.47L80.84 13.47L80.84 14.66L78.18 14.66L78.18 22L76.71 22L76.71 14.66ZM84.33 18.00L84.33 18.00L84.33 17.52Q84.33 16.28 84.77 15.32Q85.22 14.37 86.02 13.86Q86.83 13.35 87.87 13.35Q88.91 13.35 89.72 13.85Q90.52 14.35 90.96 15.29Q91.40 16.23 91.41 17.48L91.41 17.48L91.41 17.96Q91.41 19.21 90.97 20.16Q90.54 21.10 89.74 21.61Q88.93 22.12 87.88 22.12L87.88 22.12Q86.84 22.12 86.03 21.61Q85.22 21.10 84.78 20.17Q84.34 19.23 84.33 18.00ZM85.81 17.46L85.81 17.96Q85.81 19.36 86.36 20.13Q86.91 20.90 87.88 20.90L87.88 20.90Q88.87 20.90 89.40 20.15Q89.93 19.40 89.93 17.96L89.93 17.96L89.93 17.51Q89.93 16.09 89.39 15.34Q88.85 14.58 87.87 14.58L87.87 14.58Q86.91 14.58 86.37 15.33Q85.82 16.09 85.81 17.46L85.81 17.46ZM88.30 12.96L87.16 12.96L88.30 11.18L89.93 11.18L88.30 12.96ZM97.36 22L95.87 22L95.87 13.47L98.87 13.47Q100.35 13.47 101.15 14.13Q101.96 14.79 101.96 16.05L101.96 16.05Q101.96 16.90 101.54 17.48Q101.13 18.06 100.39 18.37L100.39 18.37L102.31 21.92L102.31 22L100.72 22L99.01 18.71L97.36 18.71L97.36 22ZM97.36 14.66L97.36 17.52L98.88 17.52Q99.63 17.52 100.05 17.15Q100.47 16.77 100.47 16.11L100.47 16.11Q100.47 15.43 100.08 15.05Q99.69 14.68 98.92 14.66L98.92 14.66L97.36 14.66ZM107.91 22L106.44 22L106.44 13.47L107.91 13.47L107.91 22ZM112.46 18.00L112.46 18.00L112.46 17.52Q112.46 16.28 112.90 15.32Q113.34 14.37 114.15 13.86Q114.95 13.35 115.99 13.35Q117.04 13.35 117.84 13.85Q118.65 14.35 119.09 15.29Q119.53 16.23 119.53 17.48L119.53 17.48L119.53 17.96Q119.53 19.21 119.10 20.16Q118.67 21.10 117.86 21.61Q117.06 22.12 116.01 22.12L116.01 22.12Q114.97 22.12 114.16 21.61Q113.35 21.10 112.90 20.17Q112.46 19.23 112.46 18.00ZM113.94 17.46L113.94 17.96Q113.94 19.36 114.49 20.13Q115.03 20.90 116.01 20.90L116.01 20.90Q116.99 20.90 117.52 20.15Q118.05 19.40 118.05 17.96L118.05 17.96L118.05 17.51Q118.05 16.09 117.52 15.34Q116.98 14.58 115.99 14.58L115.99 14.58Q115.03 14.58 114.49 15.33Q113.95 16.09 113.94 17.46L113.94 17.46Z" fill="#FFFFFF"/><path class="svg__text" d="" fill="#FFFFFF" x="144.57999999999998"/></svg>