<svg xmlns="http://www.w3.org/2000/svg" width="215.06" height="35" viewBox="0 0 215.06 35"><rect class="svg__rect" x="0" y="0" width="111.00999999999999" height="35" fill="#7E459B"/><rect class="svg__rect" x="109.00999999999999" y="0" width="106.05" height="35" fill="#B382BA"/><path class="svg__text" d="M15.00 22L13.46 22L16.68 13.47L18.01 13.47L21.24 22L19.69 22L18.99 20.01L15.69 20.01L15.00 22ZM17.34 15.28L16.10 18.82L18.58 18.82L17.34 15.28ZM26.87 14.66L24.24 14.66L24.24 13.47L31.00 13.47L31.00 14.66L28.34 14.66L28.34 22L26.87 22L26.87 14.66ZM36.32 22L34.85 22L34.85 13.47L36.32 13.47L36.32 22ZM43.43 22L40.37 13.47L42.00 13.47L44.14 20.14L46.31 13.47L47.94 13.47L44.87 22L43.43 22ZM53.45 22L51.98 22L51.98 13.47L53.45 13.47L53.45 22ZM60.72 22L58.26 22L58.26 13.47L60.78 13.47Q61.91 13.47 62.79 13.97Q63.66 14.48 64.14 15.40Q64.63 16.33 64.63 17.52L64.63 17.52L64.63 17.95Q64.63 19.16 64.14 20.08Q63.66 21.00 62.77 21.50Q61.87 22 60.72 22L60.72 22ZM59.74 14.66L59.74 20.82L60.71 20.82Q61.88 20.82 62.50 20.09Q63.13 19.36 63.14 17.99L63.14 17.99L63.14 17.52Q63.14 16.13 62.53 15.40Q61.93 14.66 60.78 14.66L60.78 14.66L59.74 14.66ZM69.87 22L68.33 22L71.55 13.47L72.88 13.47L76.11 22L74.56 22L73.87 20.01L70.56 20.01L69.87 22ZM72.21 15.28L70.98 18.82L73.45 18.82L72.21 15.28ZM82.52 22L80.06 22L80.06 13.47L82.58 13.47Q83.72 13.47 84.59 13.97Q85.47 14.48 85.95 15.40Q86.43 16.33 86.43 17.52L86.43 17.52L86.43 17.95Q86.43 19.16 85.94 20.08Q85.46 21.00 84.57 21.50Q83.67 22 82.52 22L82.52 22ZM81.55 14.66L81.55 20.82L82.51 20.82Q83.68 20.82 84.30 20.09Q84.93 19.36 84.94 17.99L84.94 17.99L84.94 17.52Q84.94 16.13 84.34 15.40Q83.73 14.66 82.58 14.66L82.58 14.66L81.55 14.66ZM96.47 22L90.89 22L90.89 13.47L96.43 13.47L96.43 14.66L92.38 14.66L92.38 17.02L95.88 17.02L95.88 18.19L92.38 18.19L92.38 20.82L96.47 20.82L96.47 22Z" fill="#FFFFFF"/><path class="svg__text" d="M125.58 22L123.20 22L123.20 13.60L127.04 13.60Q128.18 13.60 129.02 13.98Q129.86 14.35 130.32 15.06Q130.77 15.76 130.77 16.71L130.77 16.71Q130.77 17.66 130.32 18.35Q129.86 19.05 129.02 19.42Q128.18 19.80 127.04 19.80L127.04 19.80L125.58 19.80L125.58 22ZM125.58 15.47L125.58 17.93L126.90 17.93Q127.63 17.93 128.00 17.61Q128.37 17.29 128.37 16.71L128.37 16.71Q128.37 16.12 128.00 15.80Q127.63 15.47 126.90 15.47L126.90 15.47L125.58 15.47ZM137.90 22L135.53 22L135.53 13.60L139.37 13.60Q140.51 13.60 141.35 13.98Q142.19 14.35 142.65 15.06Q143.10 15.76 143.10 16.71L143.10 16.71Q143.10 17.62 142.67 18.30Q142.25 18.98 141.46 19.36L141.46 19.36L143.27 22L140.72 22L139.20 19.77L137.90 19.77L137.90 22ZM137.90 15.47L137.90 17.93L139.22 17.93Q139.96 17.93 140.33 17.61Q140.70 17.29 140.70 16.71L140.70 16.71Q140.70 16.12 140.33 15.79Q139.96 15.47 139.22 15.47L139.22 15.47L137.90 15.47ZM147.46 17.80L147.46 17.80Q147.46 16.55 148.07 15.55Q148.67 14.56 149.73 14.00Q150.80 13.43 152.13 13.43L152.13 13.43Q153.46 13.43 154.52 14.00Q155.58 14.56 156.19 15.55Q156.80 16.55 156.80 17.80L156.80 17.80Q156.80 19.05 156.19 20.04Q155.58 21.04 154.52 21.60Q153.46 22.17 152.13 22.17L152.13 22.17Q150.80 22.17 149.73 21.60Q148.67 21.04 148.07 20.04Q147.46 19.05 147.46 17.80ZM149.86 17.80L149.86 17.80Q149.86 18.51 150.16 19.05Q150.46 19.60 150.98 19.90Q151.49 20.20 152.13 20.20L152.13 20.20Q152.76 20.20 153.28 19.90Q153.80 19.60 154.09 19.05Q154.39 18.51 154.39 17.80L154.39 17.80Q154.39 17.09 154.09 16.54Q153.80 16 153.28 15.70Q152.76 15.40 152.13 15.40L152.13 15.40Q151.49 15.40 150.97 15.70Q150.46 16 150.16 16.54Q149.86 17.09 149.86 17.80ZM160.45 20.93L160.45 20.93L161.74 19.40Q162.41 20.27 163.18 20.27L163.18 20.27Q163.19 20.27 163.19 20.27L163.19 20.27Q163.71 20.27 163.98 19.96Q164.25 19.65 164.25 19.05L164.25 19.05L164.25 15.44L161.35 15.44L161.35 13.60L166.60 13.60L166.60 18.91Q166.60 20.54 165.78 21.36Q164.96 22.17 163.36 22.17L163.36 22.17Q162.44 22.17 161.68 21.85Q160.93 21.53 160.45 20.93ZM178.43 22L171.69 22L171.69 13.60L178.28 13.60L178.28 15.44L174.05 15.44L174.05 16.85L177.78 16.85L177.78 18.63L174.05 18.63L174.05 20.17L178.43 20.17L178.43 22ZM185.03 15.48L182.45 15.48L182.45 13.60L189.97 13.60L189.97 15.48L187.40 15.48L187.40 22L185.03 22L185.03 15.48ZM193.91 17.80L193.91 17.80Q193.91 16.55 194.52 15.55Q195.12 14.56 196.19 14.00Q197.25 13.43 198.58 13.43L198.58 13.43Q199.91 13.43 200.97 14.00Q202.04 14.56 202.64 15.55Q203.25 16.55 203.25 17.80L203.25 17.80Q203.25 19.05 202.64 20.04Q202.04 21.04 200.98 21.60Q199.91 22.17 198.58 22.17L198.58 22.17Q197.25 22.17 196.19 21.60Q195.12 21.04 194.52 20.04Q193.91 19.05 193.91 17.80ZM196.31 17.80L196.31 17.80Q196.31 18.51 196.61 19.05Q196.91 19.60 197.43 19.90Q197.95 20.20 198.58 20.20L198.58 20.20Q199.22 20.20 199.73 19.90Q200.25 19.60 200.55 19.05Q200.85 18.51 200.85 17.80L200.85 17.80Q200.85 17.09 200.55 16.54Q200.25 16 199.73 15.70Q199.22 15.40 198.58 15.40L198.58 15.40Q197.94 15.40 197.43 15.70Q196.91 16 196.61 16.54Q196.31 17.09 196.31 17.80Z" fill="#FFFFFF" x="122.00999999999999"/></svg>