<svg xmlns="http://www.w3.org/2000/svg" width="241.24" height="35" viewBox="0 0 241.24 35"><rect class="svg__rect" x="0" y="0" width="91.5" height="35" fill="#7E459B"/><rect class="svg__rect" x="89.5" y="0" width="151.74" height="35" fill="#B382BA"/><path class="svg__text" d="M19.57 22L14.22 22L14.22 13.47L15.70 13.47L15.70 20.82L19.57 20.82L19.57 22ZM29.28 22L23.70 22L23.70 13.47L29.23 13.47L29.23 14.66L25.18 14.66L25.18 17.02L28.68 17.02L28.68 18.19L25.18 18.19L25.18 20.82L29.28 20.82L29.28 22ZM35.04 22L33.56 22L33.56 13.47L35.04 13.47L35.04 22ZM41.53 14.66L38.89 14.66L38.89 13.47L45.66 13.47L45.66 14.66L43.00 14.66L43.00 22L41.53 22L41.53 14.66ZM49.28 19.16L49.28 19.16L49.28 13.47L50.76 13.47L50.76 19.18Q50.76 20.03 51.19 20.48Q51.62 20.93 52.47 20.93L52.47 20.93Q54.18 20.93 54.18 19.13L54.18 19.13L54.18 13.47L55.65 13.47L55.65 19.17Q55.65 20.53 54.78 21.32Q53.91 22.12 52.47 22.12L52.47 22.12Q51.00 22.12 50.14 21.33Q49.28 20.55 49.28 19.16ZM61.71 22L60.23 22L60.23 13.47L63.23 13.47Q64.70 13.47 65.50 14.13Q66.31 14.79 66.31 16.05L66.31 16.05Q66.31 16.90 65.89 17.48Q65.48 18.06 64.74 18.37L64.74 18.37L66.66 21.92L66.66 22L65.07 22L63.36 18.71L61.71 18.71L61.71 22ZM61.71 14.66L61.71 17.52L63.23 17.52Q63.98 17.52 64.40 17.15Q64.82 16.77 64.82 16.11L64.82 16.11Q64.82 15.43 64.43 15.05Q64.05 14.68 63.27 14.66L63.27 14.66L61.71 14.66ZM71.48 22L69.94 22L73.16 13.47L74.49 13.47L77.72 22L76.17 22L75.48 20.01L72.17 20.01L71.48 22ZM73.82 15.28L72.59 18.82L75.06 18.82L73.82 15.28Z" fill="#FFFFFF"/><path class="svg__text" d="M103.26 17.80L103.26 17.80Q103.26 16.55 103.86 15.55Q104.47 14.56 105.53 14.00Q106.59 13.43 107.92 13.43L107.92 13.43Q109.25 13.43 110.32 14.00Q111.38 14.56 111.99 15.55Q112.59 16.55 112.59 17.80L112.59 17.80Q112.59 19.05 111.99 20.04Q111.38 21.04 110.32 21.60Q109.26 22.17 107.92 22.17L107.92 22.17Q106.59 22.17 105.53 21.60Q104.47 21.04 103.86 20.04Q103.26 19.05 103.26 17.80ZM105.66 17.80L105.66 17.80Q105.66 18.51 105.96 19.05Q106.26 19.60 106.78 19.90Q107.29 20.20 107.92 20.20L107.92 20.20Q108.56 20.20 109.08 19.90Q109.59 19.60 109.89 19.05Q110.19 18.51 110.19 17.80L110.19 17.80Q110.19 17.09 109.89 16.54Q109.59 16 109.08 15.70Q108.56 15.40 107.92 15.40L107.92 15.40Q107.29 15.40 106.77 15.70Q106.26 16 105.96 16.54Q105.66 17.09 105.66 17.80ZM121.86 22L117.32 22L117.32 13.60L121.62 13.60Q123.23 13.60 124.07 14.19Q124.91 14.79 124.91 15.79L124.91 15.79Q124.91 16.39 124.61 16.87Q124.32 17.34 123.78 17.62L123.78 17.62Q124.50 17.87 124.91 18.41Q125.31 18.94 125.31 19.70L125.31 19.70Q125.31 20.80 124.43 21.40Q123.54 22 121.86 22L121.86 22ZM119.68 18.58L119.68 20.28L121.67 20.28Q122.92 20.28 122.92 19.43L122.92 19.43Q122.92 18.58 121.67 18.58L121.67 18.58L119.68 18.58ZM119.68 15.31L119.68 16.94L121.31 16.94Q122.51 16.94 122.51 16.12L122.51 16.12Q122.51 15.31 121.31 15.31L121.31 15.31L119.68 15.31ZM132.41 22L130.03 22L130.03 13.60L133.88 13.60Q135.02 13.60 135.86 13.98Q136.69 14.35 137.15 15.06Q137.61 15.76 137.61 16.71L137.61 16.71Q137.61 17.62 137.18 18.30Q136.75 18.98 135.96 19.36L135.96 19.36L137.77 22L135.23 22L133.71 19.77L132.41 19.77L132.41 22ZM132.41 15.47L132.41 17.93L133.73 17.93Q134.46 17.93 134.83 17.61Q135.21 17.29 135.21 16.71L135.21 16.71Q135.21 16.12 134.83 15.79Q134.46 15.47 133.73 15.47L133.73 15.47L132.41 15.47ZM144.77 22L142.39 22L142.39 13.60L144.77 13.60L144.77 22ZM149.52 17.80L149.52 17.80Q149.52 16.54 150.12 15.54Q150.72 14.55 151.78 13.99Q152.85 13.43 154.20 13.43L154.20 13.43Q155.37 13.43 156.31 13.83Q157.25 14.22 157.87 14.97L157.87 14.97L156.36 16.33Q155.51 15.40 154.34 15.40L154.34 15.40Q154.32 15.40 154.32 15.40L154.32 15.40Q153.24 15.40 152.58 16.06Q151.92 16.71 151.92 17.80L151.92 17.80Q151.92 18.50 152.22 19.04Q152.52 19.59 153.06 19.89Q153.60 20.20 154.30 20.20L154.30 20.20Q154.98 20.20 155.58 19.93L155.58 19.93L155.58 17.62L157.68 17.62L157.68 21.10Q156.96 21.61 156.02 21.89Q155.09 22.17 154.15 22.17L154.15 22.17Q152.83 22.17 151.77 21.61Q150.72 21.05 150.12 20.05Q149.52 19.06 149.52 17.80ZM164.09 22L161.66 22L165.37 13.60L167.71 13.60L171.43 22L168.96 22L168.30 20.37L164.75 20.37L164.09 22ZM166.52 15.93L165.44 18.61L167.60 18.61L166.52 15.93ZM177.38 15.48L174.79 15.48L174.79 13.60L182.31 13.60L182.31 15.48L179.75 15.48L179.75 22L177.38 22L177.38 15.48ZM186.26 17.80L186.26 17.80Q186.26 16.55 186.86 15.55Q187.47 14.56 188.53 14.00Q189.59 13.43 190.92 13.43L190.92 13.43Q192.25 13.43 193.32 14.00Q194.38 14.56 194.99 15.55Q195.59 16.55 195.59 17.80L195.59 17.80Q195.59 19.05 194.99 20.04Q194.38 21.04 193.32 21.60Q192.26 22.17 190.92 22.17L190.92 22.17Q189.59 22.17 188.53 21.60Q187.47 21.04 186.86 20.04Q186.26 19.05 186.26 17.80ZM188.65 17.80L188.65 17.80Q188.65 18.51 188.96 19.05Q189.26 19.60 189.77 19.90Q190.29 20.20 190.92 20.20L190.92 20.20Q191.56 20.20 192.08 19.90Q192.59 19.60 192.89 19.05Q193.19 18.51 193.19 17.80L193.19 17.80Q193.19 17.09 192.89 16.54Q192.59 16 192.08 15.70Q191.56 15.40 190.92 15.40L190.92 15.40Q190.28 15.40 189.77 15.70Q189.26 16 188.96 16.54Q188.65 17.09 188.65 17.80ZM191.38 12.92L189.75 12.92L191.36 11.09L193.64 11.09L191.38 12.92ZM202.70 22L200.32 22L200.32 13.60L204.16 13.60Q205.31 13.60 206.14 13.98Q206.98 14.35 207.44 15.06Q207.90 15.76 207.90 16.71L207.90 16.71Q207.90 17.62 207.47 18.30Q207.04 18.98 206.25 19.36L206.25 19.36L208.06 22L205.52 22L203.99 19.77L202.70 19.77L202.70 22ZM202.70 15.47L202.70 17.93L204.02 17.93Q204.75 17.93 205.12 17.61Q205.49 17.29 205.49 16.71L205.49 16.71Q205.49 16.12 205.12 15.79Q204.75 15.47 204.02 15.47L204.02 15.47L202.70 15.47ZM215.06 22L212.68 22L212.68 13.60L215.06 13.60L215.06 22ZM221.65 22L219.23 22L222.94 13.60L225.28 13.60L229.00 22L226.53 22L225.87 20.37L222.32 20.37L221.65 22ZM224.09 15.93L223.01 18.61L225.17 18.61L224.09 15.93Z" fill="#FFFFFF" x="102.5"/></svg>