<svg xmlns="http://www.w3.org/2000/svg" width="262.9" height="35" viewBox="0 0 262.9 35"><rect class="svg__rect" x="0" y="0" width="91.5" height="35" fill="#7E459B"/><rect class="svg__rect" x="89.5" y="0" width="173.39999999999998" height="35" fill="#B382BA"/><path class="svg__text" d="M19.57 22L14.22 22L14.22 13.47L15.70 13.47L15.70 20.82L19.57 20.82L19.57 22ZM29.28 22L23.70 22L23.70 13.47L29.23 13.47L29.23 14.66L25.18 14.66L25.18 17.02L28.68 17.02L28.68 18.19L25.18 18.19L25.18 20.82L29.28 20.82L29.28 22ZM35.04 22L33.56 22L33.56 13.47L35.04 13.47L35.04 22ZM41.53 14.66L38.89 14.66L38.89 13.47L45.66 13.47L45.66 14.66L43.00 14.66L43.00 22L41.53 22L41.53 14.66ZM49.28 19.16L49.28 19.16L49.28 13.47L50.76 13.47L50.76 19.18Q50.76 20.03 51.19 20.48Q51.62 20.93 52.47 20.93L52.47 20.93Q54.18 20.93 54.18 19.13L54.18 19.13L54.18 13.47L55.65 13.47L55.65 19.17Q55.65 20.53 54.78 21.32Q53.91 22.12 52.47 22.12L52.47 22.12Q51.00 22.12 50.14 21.33Q49.28 20.55 49.28 19.16ZM61.71 22L60.23 22L60.23 13.47L63.23 13.47Q64.70 13.47 65.50 14.13Q66.31 14.79 66.31 16.05L66.31 16.05Q66.31 16.90 65.89 17.48Q65.48 18.06 64.74 18.37L64.74 18.37L66.66 21.92L66.66 22L65.07 22L63.36 18.71L61.71 18.71L61.71 22ZM61.71 14.66L61.71 17.52L63.23 17.52Q63.98 17.52 64.40 17.15Q64.82 16.77 64.82 16.11L64.82 16.11Q64.82 15.43 64.43 15.05Q64.05 14.68 63.27 14.66L63.27 14.66L61.71 14.66ZM71.48 22L69.94 22L73.16 13.47L74.49 13.47L77.72 22L76.17 22L75.48 20.01L72.17 20.01L71.48 22ZM73.82 15.28L72.59 18.82L75.06 18.82L73.82 15.28Z" fill="#FFFFFF"/><path class="svg__text" d="M103.26 17.80L103.26 17.80Q103.26 16.54 103.86 15.54Q104.46 14.55 105.51 13.99Q106.56 13.43 107.88 13.43L107.88 13.43Q109.03 13.43 109.95 13.84Q110.88 14.25 111.49 15.02L111.49 15.02L109.98 16.39Q109.17 15.40 108.00 15.40L108.00 15.40Q107.31 15.40 106.78 15.70Q106.25 16 105.95 16.54Q105.66 17.09 105.66 17.80L105.66 17.80Q105.66 18.51 105.95 19.05Q106.25 19.60 106.78 19.90Q107.31 20.20 108.00 20.20L108.00 20.20Q109.17 20.20 109.98 19.22L109.98 19.22L111.49 20.58Q110.88 21.35 109.96 21.76Q109.03 22.17 107.88 22.17L107.88 22.17Q106.56 22.17 105.51 21.61Q104.46 21.05 103.86 20.05Q103.26 19.06 103.26 17.80ZM115.60 17.80L115.60 17.80Q115.60 16.55 116.20 15.55Q116.81 14.56 117.87 14.00Q118.93 13.43 120.26 13.43L120.26 13.43Q121.59 13.43 122.66 14.00Q123.72 14.56 124.33 15.55Q124.93 16.55 124.93 17.80L124.93 17.80Q124.93 19.05 124.33 20.04Q123.72 21.04 122.66 21.60Q121.60 22.17 120.26 22.17L120.26 22.17Q118.93 22.17 117.87 21.60Q116.81 21.04 116.20 20.04Q115.60 19.05 115.60 17.80ZM118.00 17.80L118.00 17.80Q118.00 18.51 118.30 19.05Q118.60 19.60 119.12 19.90Q119.63 20.20 120.26 20.20L120.26 20.20Q120.90 20.20 121.42 19.90Q121.93 19.60 122.23 19.05Q122.53 18.51 122.53 17.80L122.53 17.80Q122.53 17.09 122.23 16.54Q121.93 16 121.42 15.70Q120.90 15.40 120.26 15.40L120.26 15.40Q119.63 15.40 119.11 15.70Q118.60 16 118.30 16.54Q118.00 17.09 118.00 17.80ZM131.86 22L129.66 22L129.66 13.60L131.62 13.60L134.57 18.45L137.46 13.60L139.41 13.60L139.43 22L137.25 22L137.23 17.55L135.06 21.17L134.01 21.17L131.86 17.67L131.86 22ZM146.97 22L144.59 22L144.59 13.60L148.44 13.60Q149.57 13.60 150.41 13.98Q151.25 14.35 151.71 15.06Q152.17 15.76 152.17 16.71L152.17 16.71Q152.17 17.66 151.71 18.35Q151.25 19.05 150.41 19.42Q149.57 19.80 148.44 19.80L148.44 19.80L146.97 19.80L146.97 22ZM146.97 15.47L146.97 17.93L148.29 17.93Q149.02 17.93 149.39 17.61Q149.77 17.29 149.77 16.71L149.77 16.71Q149.77 16.12 149.39 15.80Q149.02 15.47 148.29 15.47L148.29 15.47L146.97 15.47ZM163.31 22L156.92 22L156.92 13.60L159.30 13.60L159.30 20.11L163.31 20.11L163.31 22ZM174.47 22L167.72 22L167.72 13.60L174.32 13.60L174.32 15.44L170.08 15.44L170.08 16.85L173.81 16.85L173.81 18.63L170.08 18.63L170.08 20.17L174.47 20.17L174.47 22ZM181.47 22L179.27 22L179.27 13.60L181.23 13.60L184.18 18.45L187.07 13.60L189.02 13.60L189.04 22L186.86 22L186.84 17.55L184.68 21.17L183.62 21.17L181.47 17.67L181.47 22ZM200.95 22L194.20 22L194.20 13.60L200.80 13.60L200.80 15.44L196.56 15.44L196.56 16.85L200.29 16.85L200.29 18.63L196.56 18.63L196.56 20.17L200.95 20.17L200.95 22ZM208.08 22L205.75 22L205.75 13.60L207.71 13.60L211.42 18.07L211.42 13.60L213.74 13.60L213.74 22L211.79 22L208.08 17.52L208.08 22ZM220.70 15.48L218.12 15.48L218.12 13.60L225.64 13.60L225.64 15.48L223.07 15.48L223.07 22L220.70 22L220.70 15.48ZM231.43 22L229.00 22L232.71 13.60L235.06 13.60L238.77 22L236.30 22L235.64 20.37L232.09 20.37L231.43 22ZM233.87 15.93L232.78 18.61L234.94 18.61L233.87 15.93ZM245.30 22L242.92 22L242.92 13.60L246.77 13.60Q247.91 13.60 248.75 13.98Q249.59 14.35 250.04 15.06Q250.50 15.76 250.50 16.71L250.50 16.71Q250.50 17.62 250.07 18.30Q249.64 18.98 248.85 19.36L248.85 19.36L250.66 22L248.12 22L246.60 19.77L245.30 19.77L245.30 22ZM245.30 15.47L245.30 17.93L246.62 17.93Q247.35 17.93 247.73 17.61Q248.10 17.29 248.10 16.71L248.10 16.71Q248.10 16.12 247.73 15.79Q247.35 15.47 246.62 15.47L246.62 15.47L245.30 15.47Z" fill="#FFFFFF" x="102.5"/></svg>