<svg xmlns="http://www.w3.org/2000/svg" width="142.86" height="35" viewBox="0 0 142.86 35"><rect class="svg__rect" x="0" y="0" width="72.46000000000001" height="35" fill="#7E459B"/><rect class="svg__rect" x="70.46000000000001" y="0" width="72.39999999999999" height="35" fill="#B382BA"/><path class="svg__text" d="M19.57 22L14.22 22L14.22 13.47L15.70 13.47L15.70 20.82L19.57 20.82L19.57 22ZM25.26 22L23.79 22L23.79 13.47L25.26 13.47L25.26 22ZM29.80 18.19L29.80 18.19L29.80 17.39Q29.80 16.19 30.23 15.27Q30.66 14.35 31.46 13.85Q32.26 13.35 33.31 13.35L33.31 13.35Q34.72 13.35 35.58 14.12Q36.44 14.89 36.58 16.29L36.58 16.29L35.11 16.29Q35.00 15.37 34.57 14.96Q34.14 14.55 33.31 14.55L33.31 14.55Q32.34 14.55 31.82 15.26Q31.30 15.96 31.29 17.33L31.29 17.33L31.29 18.09Q31.29 19.47 31.79 20.20Q32.28 20.92 33.24 20.92L33.24 20.92Q34.11 20.92 34.55 20.53Q34.99 20.14 35.11 19.22L35.11 19.22L36.58 19.22Q36.45 20.59 35.57 21.35Q34.70 22.12 33.24 22.12L33.24 22.12Q32.22 22.12 31.44 21.63Q30.66 21.15 30.24 20.26Q29.82 19.37 29.80 18.19ZM32.52 22.83L32.52 22.83L32.71 22.01L33.75 22.01L33.68 22.33Q34.56 22.49 34.56 23.34L34.56 23.34Q34.56 23.96 34.06 24.30Q33.55 24.65 32.64 24.65L32.64 24.65L32.60 23.85Q32.99 23.85 33.20 23.71Q33.41 23.57 33.41 23.32L33.41 23.32Q33.41 23.06 33.20 22.96Q32.99 22.86 32.52 22.83ZM41.67 22L40.13 22L43.36 13.47L44.69 13.47L47.91 22L46.37 22L45.67 20.01L42.37 20.01L41.67 22ZM42.77 12.89L41.90 12.85Q41.90 12.20 42.27 11.76Q42.64 11.32 43.20 11.32L43.20 11.32Q43.53 11.32 44.00 11.59Q44.48 11.85 44.78 11.85L44.78 11.85Q45.00 11.85 45.16 11.68Q45.32 11.52 45.32 11.24L45.32 11.24L46.19 11.31Q46.19 11.96 45.82 12.38Q45.45 12.81 44.89 12.81L44.89 12.81Q44.66 12.81 44.49 12.76Q44.32 12.71 44.02 12.54Q43.71 12.36 43.58 12.33Q43.46 12.29 43.30 12.29L43.30 12.29Q43.08 12.29 42.93 12.46Q42.77 12.63 42.77 12.89L42.77 12.89ZM44.02 15.28L42.78 18.82L45.25 18.82L44.02 15.28ZM51.60 18.00L51.60 18.00L51.60 17.52Q51.60 16.28 52.04 15.32Q52.48 14.37 53.29 13.86Q54.10 13.35 55.14 13.35Q56.18 13.35 56.99 13.85Q57.79 14.35 58.23 15.29Q58.67 16.23 58.68 17.48L58.68 17.48L58.68 17.96Q58.68 19.21 58.24 20.16Q57.81 21.10 57.01 21.61Q56.20 22.12 55.15 22.12L55.15 22.12Q54.11 22.12 53.30 21.61Q52.49 21.10 52.05 20.17Q51.61 19.23 51.60 18.00ZM53.08 17.46L53.08 17.96Q53.08 19.36 53.63 20.13Q54.18 20.90 55.15 20.90L55.15 20.90Q56.14 20.90 56.67 20.15Q57.20 19.40 57.20 17.96L57.20 17.96L57.20 17.51Q57.20 16.09 56.66 15.34Q56.12 14.58 55.14 14.58L55.14 14.58Q54.18 14.58 53.64 15.33Q53.09 16.09 53.08 17.46L53.08 17.46Z" fill="#FFFFFF"/><path class="svg__text" d="M86.07 22L83.64 22L87.35 13.60L89.69 13.60L93.41 22L90.94 22L90.28 20.37L86.73 20.37L86.07 22ZM88.50 15.93L87.42 18.61L89.58 18.61L88.50 15.93ZM97.49 18.26L97.49 18.26L97.49 13.60L99.87 13.60L99.87 18.19Q99.87 20.20 101.46 20.20L101.46 20.20Q103.05 20.20 103.05 18.19L103.05 18.19L103.05 13.60L105.39 13.60L105.39 18.26Q105.39 20.13 104.35 21.15Q103.31 22.17 101.44 22.17L101.44 22.17Q99.57 22.17 98.53 21.15Q97.49 20.13 97.49 18.26ZM116.86 22L110.48 22L110.48 13.60L112.85 13.60L112.85 20.11L116.86 20.11L116.86 22ZM122.70 22L120.27 22L123.98 13.60L126.33 13.60L130.04 22L127.57 22L126.91 20.37L123.36 20.37L122.70 22ZM125.14 15.93L124.05 18.61L126.21 18.61L125.14 15.93Z" fill="#FFFFFF" x="83.46000000000001"/></svg>