<svg xmlns="http://www.w3.org/2000/svg" width="104.50999999999999" height="35" viewBox="0 0 104.50999999999999 35"><rect class="svg__rect" x="0" y="0" width="104.50999999999999" height="35" fill="#A7BFC1"/><rect class="svg__rect" x="104.50999999999999" y="0" width="0" height="35" fill="#EA4560"/><path class="svg__text" d="M13.95 18.00L13.95 18.00L13.95 17.52Q13.95 16.28 14.39 15.32Q14.83 14.37 15.64 13.86Q16.44 13.35 17.49 13.35Q18.53 13.35 19.34 13.85Q20.14 14.35 20.58 15.29Q21.02 16.23 21.03 17.48L21.03 17.48L21.03 17.96Q21.03 19.21 20.59 20.16Q20.16 21.10 19.35 21.61Q18.55 22.12 17.50 22.12L17.50 22.12Q16.46 22.12 15.65 21.61Q14.84 21.10 14.40 20.17Q13.95 19.23 13.95 18.00ZM15.43 17.46L15.43 17.96Q15.43 19.36 15.98 20.13Q16.53 20.90 17.50 20.90L17.50 20.90Q18.48 20.90 19.01 20.15Q19.54 19.40 19.54 17.96L19.54 17.96L19.54 17.51Q19.54 16.09 19.01 15.34Q18.47 14.58 17.49 14.58L17.49 14.58Q16.53 14.58 15.98 15.33Q15.44 16.09 15.43 17.46L15.43 17.46ZM26.97 22L25.49 22L25.49 13.47L28.75 13.47Q30.18 13.47 31.02 14.21Q31.87 14.96 31.87 16.18L31.87 16.18Q31.87 17.44 31.04 18.13Q30.22 18.83 28.74 18.83L28.74 18.83L26.97 18.83L26.97 22ZM26.97 14.66L26.97 17.64L28.75 17.64Q29.55 17.64 29.96 17.27Q30.38 16.90 30.38 16.19L30.38 16.19Q30.38 15.50 29.96 15.09Q29.53 14.68 28.80 14.66L28.80 14.66L26.97 14.66ZM35.88 18.19L35.88 18.19L35.88 17.39Q35.88 16.19 36.31 15.27Q36.73 14.35 37.53 13.85Q38.33 13.35 39.38 13.35L39.38 13.35Q40.80 13.35 41.66 14.12Q42.52 14.89 42.66 16.29L42.66 16.29L41.18 16.29Q41.08 15.37 40.65 14.96Q40.22 14.55 39.38 14.55L39.38 14.55Q38.42 14.55 37.90 15.26Q37.38 15.96 37.37 17.33L37.37 17.33L37.37 18.09Q37.37 19.47 37.86 20.20Q38.36 20.92 39.31 20.92L39.31 20.92Q40.19 20.92 40.63 20.53Q41.06 20.14 41.18 19.22L41.18 19.22L42.66 19.22Q42.53 20.59 41.65 21.35Q40.77 22.12 39.31 22.12L39.31 22.12Q38.29 22.12 37.52 21.63Q36.74 21.15 36.32 20.26Q35.90 19.37 35.88 18.19ZM48.54 22L47.06 22L47.06 13.47L48.54 13.47L48.54 22ZM53.08 18.00L53.08 18.00L53.08 17.52Q53.08 16.28 53.52 15.32Q53.96 14.37 54.77 13.86Q55.57 13.35 56.62 13.35Q57.66 13.35 58.46 13.85Q59.27 14.35 59.71 15.29Q60.15 16.23 60.15 17.48L60.15 17.48L60.15 17.96Q60.15 19.21 59.72 20.16Q59.29 21.10 58.48 21.61Q57.68 22.12 56.63 22.12L56.63 22.12Q55.59 22.12 54.78 21.61Q53.97 21.10 53.52 20.17Q53.08 19.23 53.08 18.00ZM54.56 17.46L54.56 17.96Q54.56 19.36 55.11 20.13Q55.65 20.90 56.63 20.90L56.63 20.90Q57.61 20.90 58.14 20.15Q58.67 19.40 58.67 17.96L58.67 17.96L58.67 17.51Q58.67 16.09 58.14 15.34Q57.60 14.58 56.62 14.58L56.62 14.58Q55.65 14.58 55.11 15.33Q54.57 16.09 54.56 17.46L54.56 17.46ZM66.10 22L64.62 22L64.62 13.47L66.10 13.47L69.92 19.54L69.92 13.47L71.39 13.47L71.39 22L69.90 22L66.10 15.95L66.10 22ZM76.91 22L75.37 22L78.59 13.47L79.92 13.47L83.15 22L81.60 22L80.90 20.01L77.60 20.01L76.91 22ZM79.25 15.28L78.01 18.82L80.49 18.82L79.25 15.28ZM92.46 22L87.10 22L87.10 13.47L88.58 13.47L88.58 20.82L92.46 20.82L92.46 22Z" fill="#FFFFFF"/><path class="svg__text" d="" fill="#FFFFFF" x="117.50999999999999"/></svg>